<svg id="Capa_1" data-name="Capa 1"
  xmlns="http://www.w3.org/2000/svg" viewBox="0 0 512 341.33">
  <defs>
    <style>.cls-1{fill:#fff;}</style>
  </defs>
  <title>left</title>
  <path  style="fill: #FFFFFF" class="cls-1" d="M3.13,248.46l160-160A10.66,10.66,0,0,1,181.33,96v21.33a10.66,10.66,0,0,1-3.12,7.54L68.42,234.67H501.33A10.66,10.66,0,0,1,512,245.33v21.34a10.66,10.66,0,0,1-10.67,10.66H68.42l109.79,109.8a10.64,10.64,0,0,1,3.12,7.54V416a10.64,10.64,0,0,1-6.58,9.85,10.43,10.43,0,0,1-4.08.82,10.67,10.67,0,0,1-7.54-3.13l-160-160A10.65,10.65,0,0,1,3.13,248.46Z" transform="translate(0 -85.33)"/>
</svg>