<?xml version="1.0" encoding="utf-8"?>
<!-- Generator: Adobe Illustrator 23.0.6, SVG Export Plug-In . SVG Version: 6.00 Build 0)  -->
<svg version="1.1" id="Layer_1" xmlns="http://www.w3.org/2000/svg" xmlns:xlink="http://www.w3.org/1999/xlink" x="0px" y="0px"
	 viewBox="0 0 1000 1000" style="enable-background:new 0 0 1000 1000;" xml:space="preserve">
<style type="text/css">
	.st0{fill:#FFFFFF;}
</style>
<g>
	<path id="Twitter__x28_alt_x29_" class="st0" d="M885.99,436.57c55.55-4.58,93.23-29.84,107.73-64.1
		c-20.04,12.31-82.24,25.73-116.59,12.95c-1.68-8.07-3.56-15.74-5.41-22.66c-26.18-96.11-115.8-173.55-209.7-164.19
		c7.6-3.07,15.3-5.92,22.99-8.49c10.34-3.7,70.98-13.57,61.43-34.98c-8.05-18.83-82.14,14.23-96.09,18.55
		c18.42-6.93,48.87-18.84,52.14-40c-28.21,3.87-55.91,17.21-77.31,36.61c7.73-8.32,13.59-18.45,14.83-29.36
		c-75.25,48.08-119.21,145-154.79,239.02c-27.93-27.07-52.69-48.39-74.9-60.23c-62.31-33.41-136.81-68.28-253.76-111.69
		c-3.59,38.69,19.14,90.14,84.62,124.36c-14.19-1.9-40.13,2.34-60.88,7.31c8.45,44.33,36.05,80.85,110.76,98.51
		c-34.15,2.25-51.79,10.02-67.78,26.77c15.55,30.83,53.5,67.11,121.76,59.66c-75.9,32.71-30.95,93.29,30.81,84.26
		C270.48,717.67,104.38,709.68,9,618.66C258.03,958,799.37,819.34,880.04,492.5c60.44,0.52,95.97-20.94,118.01-44.59
		C963.22,453.82,912.75,447.71,885.99,436.57z"/>
</g>
</svg>
