<?xml version="1.0" encoding="utf-8"?>
<!-- Generator: Adobe Illustrator 23.0.6, SVG Export Plug-In . SVG Version: 6.00 Build 0)  -->
<svg version="1.1" id="Layer_1" xmlns="http://www.w3.org/2000/svg" xmlns:xlink="http://www.w3.org/1999/xlink" x="0px" y="0px"
	 viewBox="0 0 1000 1000" style="enable-background:new 0 0 1000 1000;" xml:space="preserve">
<style type="text/css">
	.st0{fill:#FFFFFF;}
</style>
<g>
	<path class="st0" d="M730.06,14.2l-127-0.2c-142.69,0-234.89,94.6-234.89,241.03v111.13h-127.7c-11.03,0-19.97,8.95-19.97,19.98
		v161.01c0,11.03,8.95,19.97,19.97,19.97h127.7v406.29c0,11.03,8.94,19.97,19.97,19.97h166.61c11.03,0,19.97-8.95,19.97-19.97
		V567.12h149.31c11.03,0,19.97-8.94,19.97-19.97l0.06-161.01c0-5.3-2.11-10.37-5.85-14.12c-3.74-3.75-8.83-5.86-14.13-5.86H574.71
		v-94.21c0-45.28,10.79-68.27,69.77-68.27l85.56-0.03c11.02,0,19.96-8.95,19.96-19.97V34.17C750,23.16,741.07,14.22,730.06,14.2z"/>
</g>
</svg>
