<?xml version="1.0" encoding="utf-8"?>
<!-- Generator: Adobe Illustrator 22.1.0, SVG Export Plug-In . SVG Version: 6.00 Build 0)  -->
<svg version="1.1" id="Layer_1" xmlns="http://www.w3.org/2000/svg" xmlns:xlink="http://www.w3.org/1999/xlink" x="0px" y="0px"
	 viewBox="0 0 1000 1000" style="enable-background:new 0 0 1000 1000;" xml:space="preserve">
<style type="text/css">
	.st0{fill:#FFFFFF;}
</style>
<g>
	<g>
		<path class="st0" d="M6.1,492.3l312.5-312.5c6-5.9,14.9-7.8,22.7-4.5c7.8,3.2,12.9,10.8,12.9,19.2v41.7c0,5.5-2.2,10.8-6.1,14.7
			L133.6,465.3h845.5c11.5,0,20.8,9.3,20.8,20.8v41.7c0,11.5-9.3,20.8-20.8,20.8H133.6l214.4,214.4c3.9,3.9,6.1,9.2,6.1,14.7v41.7
			c0,8.4-5.1,16-12.9,19.2c-2.6,1.1-5.3,1.6-8,1.6c-5.4,0-10.7-2.1-14.7-6.1L6.1,521.7C-2,513.6-2,500.4,6.1,492.3z"/>
	</g>
</g>
</svg>
