<?xml version="1.0" encoding="utf-8"?>
<!-- Generator: Adobe Illustrator 22.1.0, SVG Export Plug-In . SVG Version: 6.00 Build 0)  -->
<svg version="1.1" id="Layer_1" xmlns="http://www.w3.org/2000/svg" xmlns:xlink="http://www.w3.org/1999/xlink" x="0px" y="0px"
	 viewBox="0 0 1000 1000" style="enable-background:new 0 0 1000 1000;" xml:space="preserve">
<style type="text/css">
	.st0{fill:#FFFFFF;}
</style>
<g>
	<g>
		<path class="st0" d="M993.9,492.3L681.4,179.8c-6-5.9-14.9-7.8-22.7-4.5c-7.8,3.2-12.9,10.8-12.9,19.2v41.7
			c0,5.5,2.2,10.8,6.1,14.7l214.4,214.4H20.8C9.3,465.3,0,474.7,0,486.2v41.7c0,11.5,9.3,20.8,20.8,20.8h845.5L651.9,763.1
			c-3.9,3.9-6.1,9.2-6.1,14.7v41.7c0,8.4,5.1,16,12.9,19.2c2.6,1.1,5.3,1.6,8,1.6c5.4,0,10.7-2.1,14.7-6.1l312.5-312.5
			C1002,513.6,1002,500.4,993.9,492.3z"/>
	</g>
</g>
</svg>
